<svg xmlns="http://www.w3.org/2000/svg" xmlns:xlink="http://www.w3.org/1999/xlink" version="1.1" width="1041.6666pt" height="1041.6666pt" viewBox="0 0 1041.6666 1041.6666">
<g enable-background="new">
<clipPath id="cp0">
<path transform="matrix(.6666666,0,0,.6666666,0,0)" d="M 0 0 L 1562.5 0 L 1562.5 1562.5 L 0 1562.5 Z " fill-rule="evenodd" data-index="0" style="visibility: visible;"></path>
</clipPath>
<g clip-path="url(#cp0)">

</g>
<clipPath id="cp1">
<path transform="matrix(.6666666,0,0,.6666666,0,0)" d="M 0 0 L 1562.5 0 L 1562.5 1562.5 L 0 1562.5 Z " fill-rule="evenodd" data-index="2" style="visibility: visible;"></path>
</clipPath>
<g clip-path="url(#cp1)">

</g>
<clipPath id="cp2">
<path transform="matrix(.6666666,0,0,.6666666,0,0)" d="M 0 0 L 1562.5 0 L 1562.5 1562.5 L 0 1562.5 Z " fill-rule="evenodd" data-index="4" style="visibility: visible;"></path>
</clipPath>
<g clip-path="url(#cp2)">
<g id="Layer-1" data-name="H1">
<g id="Layer-2" data-name="P">
</g>
<symbol id="font_3_24">
<path d="M .667 .43200005 C .704 .43200005 .709 .43300004 .721 .43800003 C .734 .44400005 .741 .45800004 .741 .47500003 C .741 .48400004 .74 .49600006 .739 .508 C .73300006 .56000009 .731 .59900006 .731 .63600006 C .731 .64400008 .731 .651 .732 .65700009 C .73300006 .68100008 .734 .70100006 .734 .70500007 C .734 .734 .718 .75100007 .667 .77300009 C .598 .80300006 .5 .8230001 .421 .8230001 C .31 .8230001 .20400001 .78900006 .13000001 .72800007 C .044 .65800008 0 .55200007 0 .41400004 C 0 .143 .155 0 .447 0 C .538 0 .63600006 .016000003 .68200007 .039000006 C .70600005 .050000006 .713 .063 .718 .108 C .72400006 .156 .732 .18800001 .75100007 .246 C .757 .263 .76000007 .28000004 .76000007 .29100005 C .76000007 .31000004 .744 .32500003 .725 .32500003 C .71900007 .32500003 .711 .32400004 .702 .32200004 C .612 .30300004 .552 .29500003 .50200006 .29500003 C .373 .29500003 .321 .33600004 .321 .43700005 C .321 .52000007 .352 .56600007 .409 .56600007 C .45200003 .56600007 .474 .54200008 .474 .49500004 C .47300003 .44000004 .48299999 .43200005 .545 .43200005 L .667 .43200005 Z " data-index="5" style="visibility: visible;"></path>
</symbol>
<symbol id="font_3_30">
<path d="M .417 .8230001 C .305 .8230001 .208 .79200008 .136 .734 C .052 .66600009 0 .54100009 0 .40500004 C 0 .158 .16100002 0 .41300003 0 C .672 0 .83000007 .157 .83000007 .41500003 C .83000007 .545 .786 .656 .708 .725 C .637 .785 .527 .8230001 .417 .8230001 M .41300003 .57400009 C .469 .57400009 .49800004 .52000007 .49800004 .41400004 C .49800004 .31200005 .468 .25700004 .414 .25700004 C .358 .25700004 .332 .30800004 .332 .41600005 C .332 .522 .358 .57400009 .41300003 .57400009 Z " data-index="6" style="visibility: visible;"></path>
</symbol>
<symbol id="font_3_25">
<path d="M .030000002 .17300001 C .030000002 .116000007 .028000005 .1 .017 .083000008 C .001000002 .057000005 0 .055000005 0 .041 C 0 .016 .016000003 0 .040000008 0 C .048 0 .063 .0009999997 .080000009 .0019999999 C .10500001 .0039999999 .146 .006 .17200002 .006 C .19100002 .006 .24500004 .0039999999 .3 .0019999999 C .32600004 .0009999997 .34600003 0 .35700003 0 C .43600003 0 .512 .016 .57600006 .046000005 C .707 .108 .77800008 .23200001 .77800008 .40000005 C .77800008 .557 .70800009 .684 .58900007 .741 C .521 .774 .43800003 .792 .34700004 .792 C .33100004 .792 .30800004 .791 .277 .78900006 C .22100002 .786 .199 .785 .17500001 .785 C .14900002 .785 .13300002 .786 .08800001 .79 C .071 .791 .055000009 .792 .043000007 .792 C .016000003 .792 0 .777 0 .75100007 C 0 .735 0 .734 .017 .707 C .028000005 .69 .030000002 .674 .030000002 .617 L .030000002 .17300001 M .32800005 .49700005 C .32800005 .535 .33500005 .543 .36900003 .543 C .43800003 .543 .476 .49300004 .476 .40200005 C .476 .31400005 .43700005 .263 .37000004 .263 C .33400003 .263 .32800005 .26800005 .32800005 .29900003 L .32800005 .49700005 Z " data-index="7" style="visibility: visible;"></path>
</symbol>
<symbol id="font_3_26">
<path d="M .030000002 .17300001 C .030000002 .116000007 .028 .1 .017 .083000008 C 0 .056 0 .055000005 0 .040000004 C 0 .016 .015999999 0 .040000004 0 C .049 0 .063999999 .0009999997 .08 .0019999999 C .107999999 .0039999999 .147 .006 .177 .006 C .292 .006 .50100007 .003 .556 .0009999997 C .57600006 0 .595 0 .606 0 C .642 0 .648 .007 .65800008 .064 C .665 .108 .68200007 .176 .689 .193 C .69500008 .208 .698 .221 .698 .229 C .698 .246 .683 .26000003 .665 .26000003 C .65400007 .26000003 .65300008 .26000003 .624 .24800001 C .582 .23200001 .521 .222 .462 .222 C .333 .222 .32500003 .224 .32500003 .25500003 L .32500003 .29000003 C .32500003 .32000003 .333 .32600004 .374 .32600004 L .45900003 .32600004 C .49300004 .32600004 .518 .323 .532 .31800003 C .569 .30400003 .569 .30400003 .58100005 .30400003 C .602 .30400003 .61700007 .32000003 .61700007 .34100003 C .61700007 .34600003 .616 .35800005 .615 .37500004 C .614 .38000003 .614 .38900004 .614 .39800004 C .614 .42100004 .615 .44000004 .616 .45700006 C .61700007 .46800003 .61700007 .47700004 .61700007 .48300005 C .61700007 .507 .605 .521 .583 .521 C .574 .521 .56600007 .52 .56100007 .518 C .513 .5 .509 .49900005 .45900003 .49900005 L .38300003 .49900005 C .351 .49900005 .345 .5 .338 .503 C .33 .506 .32500003 .517 .32500003 .528 L .32500003 .561 C .32500003 .587 .333 .595 .361 .595 C .477 .595 .551 .59000006 .586 .58100005 C .63100007 .568 .63100007 .568 .64400008 .568 C .66400006 .568 .679 .58 .679 .596 C .679 .601 .67800006 .60800006 .675 .615 C .65900006 .667 .656 .677 .64400008 .745 C .637 .78000006 .625 .792 .597 .792 C .588 .792 .57500007 .791 .56 .79 C .521 .787 .402 .785 .27600003 .785 C .19500001 .785 .119 .787 .088 .79 C .07100001 .791 .053 .792 .042 .792 C .015999999 .792 0 .776 0 .75100007 C 0 .736 .0009999983 .734 .017 .707 C .028 .69 .030000002 .674 .030000002 .617 L .030000002 .17300001 Z " data-index="8" style="visibility: visible;"></path>
</symbol>
<use xlink:href="#font_3_24" transform="matrix(224.72916,0,0,-224.72916,160.34954,553.06948)" fill="#243ce6"></use>
<use xlink:href="#font_3_30" transform="matrix(224.72916,0,0,-224.72916,340.78929,553.06948)" fill="#243ce6"></use>
<use xlink:href="#font_3_25" transform="matrix(224.72916,0,0,-224.72916,539.6553,549.4738)" fill="#243ce6"></use>
<use xlink:href="#font_3_26" transform="matrix(224.72916,0,0,-224.72916,726.6115,549.4738)" fill="#243ce6"></use>
</g>
<path transform="matrix(2.0795,-.1263231,.1263231,2.0795,171.38501,474.01268)" stroke-width="4.108575" stroke-linecap="butt" stroke-miterlimit="4" stroke-linejoin="miter" fill="none" stroke="#101010" d="M 75.91448 61.608835 C 76.556438 61.608835 76.87741 62.123735 76.87741 63.153535 C 76.87741 64.183338 76.650058 65.95539 76.195339 68.46971 C 75.84761 70.15484 73.92175 72.56216 70.417758 75.69168 C 66.19157 79.43641 61.550786 82.11121 56.4954 83.716098 C 53.446126 84.67902 50.4704 85.16049 47.568239 85.16049 C 44.666078 85.16049 42.01802 83.93677 39.62407 81.48932 C 37.23012 79.04187 36.033147 76.13971 36.033147 72.78283 C 36.033147 69.42595 36.708536 65.94871 38.05931 62.35109 C 39.410085 58.75348 41.22895 55.316358 43.51591 52.03972 C 45.80287 48.763086 48.50442 45.613504 51.620569 42.590974 C 54.736719 39.568445 57.97992 36.947137 61.35017 34.727048 C 64.72042 32.506959 68.25117 30.741589 71.9424 29.430935 C 75.63363 28.12028 79.13762 27.46495 82.45438 27.46495 C 85.07568 27.46495 87.30915 28.414507 89.15477 30.313618 C 90.1177 31.330044 90.59916 32.60726 90.59916 34.145277 C 90.59916 35.68329 89.85021 37.622526 88.352329 39.96298 C 86.85443 42.303434 85.082378 44.43659 83.03615 46.362447 C 80.98992 48.288309 78.87683 49.919939 76.69686 51.25734 C 74.51689 52.59474 72.77158 53.263444 71.46093 53.263444 C 70.150279 53.263444 69.02686 52.855535 68.09068 52.03972 C 67.154499 51.223905 66.6864 50.49502 66.6864 49.853067 C 66.6864 49.211114 66.82683 48.50229 67.10769 47.726598 C 67.38854 46.950906 67.74295 46.563058 68.17092 46.563058 C 68.063938 46.696798 68.01044 46.83054 68.01044 46.96428 C 68.01044 47.285257 68.47184 47.445745 69.394649 47.445745 C 70.31745 47.445745 71.86215 46.62993 74.02875 44.9983 C 76.195339 43.366666 78.15463 41.534425 79.90663 39.50157 C 81.65862 37.468725 82.53462 35.944086 82.53462 34.927659 C 82.53462 34.23221 82.066539 33.884485 81.130359 33.884485 C 78.616039 33.884485 75.14547 35.05471 70.71867 37.395166 C 66.29188 39.73562 62.059 42.75146 58.02004 46.44269 C 53.981084 50.133924 50.4704 54.513917 47.487997 59.58267 C 44.50559 64.65142 43.014387 69.20528 43.014387 73.24423 C 43.014387 74.92936 43.462415 76.280139 44.358476 77.29656 C 45.25453 78.31299 46.632059 78.8212 48.491048 78.8212 C 50.350038 78.8212 52.550065 78.28624 55.091127 77.21632 C 57.63219 76.14639 60.046205 74.83574 62.33316 73.284358 C 64.62012 71.73297 66.78002 70.14146 68.812877 68.50983 C 70.845729 66.8782 72.47067 65.44718 73.687709 64.21677 C 74.90474 62.98636 75.526638 62.244104 75.55338 61.989995 C 75.58013 61.735887 75.7005 61.608835 75.91448 61.608835 Z M 105.87785 54.426984 C 106.68029 54.426984 107.50279 54.788084 108.34536 55.510278 C 109.18793 56.232477 109.60921 57.335836 109.60921 58.82035 C 109.60921 60.304868 109.08762 62.23073 108.04445 64.59793 C 107.001277 66.965129 105.57025 69.37245 103.75138 71.8199 C 101.93252 74.26735 99.933109 76.56768 97.753139 78.720897 C 95.573169 80.874118 93.21934 82.63948 90.69165 84.017009 C 88.16396 85.39453 85.870319 86.0833 83.810718 86.0833 C 81.751117 86.0833 80.09942 85.434658 78.85564 84.137378 C 77.611858 82.840099 76.98996 81.0346 76.98996 78.720897 C 76.98996 76.40719 77.55836 73.84606 78.69515 71.03752 C 79.83194 68.22898 81.296398 65.74809 83.08852 63.594877 C 84.88064 61.441659 86.81987 59.509115 88.90622 57.797239 C 93.26615 54.293245 97.09112 52.541246 100.381137 52.541246 C 101.85227 52.541246 102.96232 52.902345 103.71126 53.624544 C 103.97874 53.865278 104.11248 54.079259 104.11248 54.266496 L 104.11248 54.507226 C 104.48695 54.45373 105.07542 54.426984 105.87785 54.426984 Z M 101.82552 59.763219 L 101.54467 59.763219 C 100.60849 59.763219 100.140399 59.081144 100.140399 57.716997 C 98.18779 58.358949 96.14156 59.482366 94.001728 61.087247 C 91.86188 62.69213 89.949398 64.59124 88.26427 66.78458 C 84.840518 71.17126 83.10189 74.87586 83.04839 77.89839 C 83.04839 79.396289 83.596729 80.14523 84.6934 80.14523 C 85.79007 80.14523 87.42171 79.423038 89.588298 77.97864 C 91.75488 76.53424 93.90141 74.47464 96.027889 71.799839 C 98.15436 69.12503 99.745868 66.80464 100.802417 64.83866 C 101.85896 62.872678 102.38724 61.535276 102.38724 60.826456 C 102.38724 60.11763 102.2 59.763219 101.82552 59.763219 Z M 108.72149 85.24073 L 106.7555 85.16049 L 106.03331 85.16049 C 105.76583 85.080249 105.47829 84.919757 105.170688 84.67902 C 104.86308 84.43829 104.629039 84.26443 104.468547 84.15744 C 104.30806 84.050449 104.22781 83.85652 104.22781 83.57567 C 104.22781 83.294818 104.33481 82.80666 104.54879 82.11121 C 109.76466 70.6363 114.80667 61.46172 119.67481 54.58747 C 120.20977 53.838529 121.072399 53.27013 122.26268 52.882284 C 123.45297 52.49444 124.609828 52.300516 125.733249 52.300516 C 126.40195 52.300516 126.7363 52.8221 126.7363 53.865274 C 126.7363 54.159505 126.6293 54.554037 126.41531 55.048875 C 126.20133 55.543714 125.666378 56.352846 124.81044 57.47626 C 123.9545 58.599679 122.93807 59.883584 121.761157 61.32798 C 120.58424 62.772375 119.91554 63.601564 119.75505 63.815549 C 123.41953 60.017328 126.72961 57.188718 129.68527 55.329729 C 132.64093 53.470739 134.78078 52.541246 136.1048 52.541246 C 137.42882 52.541246 138.44525 52.922407 139.15409 53.684724 C 139.8629 54.44704 140.21732 55.26286 140.21732 56.13217 C 140.21732 57.001485 140.15714 57.72368 140.03676 58.298765 C 139.9164 58.873846 139.69573 59.475675 139.37476 60.104257 C 139.05377 60.732839 138.7796 61.267797 138.55225 61.709138 C 138.32489 62.150484 137.94373 62.725568 137.40877 63.434389 C 136.87381 64.14321 136.50601 64.63136 136.3054 64.89884 C 136.1048 65.16632 135.6902 65.67454 135.06163 66.42348 C 134.43305 67.172428 134.09201 67.58702 134.03852 67.66727 C 134.78746 66.91832 135.83063 65.80827 137.16803 64.337139 C 138.50543 62.865995 139.63555 61.635583 140.55835 60.645906 C 141.48116 59.656225 142.63802 58.539495 144.0289 57.29571 C 145.4198 56.051927 146.71709 55.042188 147.92075 54.266496 C 150.80954 52.447629 153.73845 51.538194 156.70749 51.538194 C 157.7239 51.538194 158.57985 51.85917 159.2753 52.501127 C 159.97075 53.143079 160.31847 53.912084 160.31847 54.808145 C 160.31847 55.7042 159.23517 57.844045 157.06858 61.227678 C 154.902 64.611309 152.74208 68.0083 150.58887 71.41868 C 148.43566 74.829059 147.35904 76.975589 147.35904 77.85827 C 147.35904 79.088687 147.5864 79.817569 148.0411 80.04492 C 148.49584 80.272289 149.04418 80.359218 149.68613 80.30572 C 150.32808 80.25222 151.23082 79.83762 152.39437 79.061939 C 153.55789 78.28624 154.59438 77.483798 155.50382 76.65461 C 156.97496 75.31721 158.33911 74.01993 159.59627 72.76277 C 159.86376 72.52204 160.15799 72.40167 160.47896 72.40167 C 160.98717 72.40167 161.29477 72.78952 161.40177 73.56521 C 161.50876 74.340908 161.56226 75.14335 161.56226 75.972537 C 161.56226 76.80172 161.48201 77.37681 161.32152 77.697788 C 160.54582 79.19567 158.83396 81.027919 156.1859 83.1945 C 153.53784 85.3611 150.99677 86.4444 148.5627 86.4444 C 148.26847 86.4444 148.05449 86.43102 147.92075 86.404277 C 145.1657 86.136798 143.2599 85.38116 142.20336 84.137378 C 141.1468 82.89359 140.61853 81.415767 140.61853 79.70389 C 140.61853 77.99201 141.2003 75.919048 142.36385 73.48497 C 143.52738 71.050899 144.8046 68.84418 146.1955 66.86482 C 147.5864 64.88547 148.86362 63.100038 150.02716 61.50853 C 151.19069 59.91702 151.77246 59.054395 151.77246 58.920656 C 151.77246 58.786916 151.66547 58.720048 151.45149 58.720048 C 150.6223 58.720048 148.77669 60.05745 145.91464 62.732255 C 141.01975 67.30617 136.79355 71.7196 133.23607 75.972537 C 132.2999 77.095958 130.0798 79.94462 126.575809 84.51853 C 126.17458 85.0535 125.53932 85.32098 124.670009 85.32098 C 123.8007 85.32098 122.89795 85.1538 121.96177 84.81945 C 121.02559 84.4851 120.557498 84.050449 120.557498 83.51548 C 120.557498 83.248 122.68397 79.49659 126.936908 72.261249 C 131.18985 65.0259 133.31632 61.080564 133.31632 60.425233 C 133.31632 59.769906 132.92179 59.44224 132.13272 59.44224 C 131.34365 59.44224 129.7187 60.619157 127.25788 62.972986 C 120.49062 69.446018 115.24801 75.878917 111.53003 82.2717 C 111.2893 82.64617 110.821208 83.23463 110.125759 84.03707 C 109.430309 84.83951 108.96222 85.24073 108.72149 85.24073 Z M 181.0532 42.31012 L 181.7754 42.229875 C 182.17664 42.229875 182.4976 42.5776 182.73834 43.27305 C 182.97908 43.9685 183.09944 44.43659 183.09944 44.67732 C 183.09944 44.918054 182.83196 45.37277 182.297 46.04147 L 170.86222 63.45445 C 174.87442 59.44224 178.95349 56.513334 183.09944 54.667718 C 184.70432 53.972269 186.1554 53.624544 187.45269 53.624544 C 188.74997 53.624544 189.79314 54.045827 190.5822 54.88839 C 191.37128 55.73095 191.76581 56.78081 191.76581 58.03797 C 191.76581 59.295129 191.41808 60.846517 190.72263 62.69213 C 190.02718 64.53775 189.08432 66.50373 187.89403 68.59007 C 186.70374 70.67642 185.25934 72.776149 183.56084 74.88924 C 181.86234 77.002338 180.0836 78.91482 178.22461 80.62669 C 176.36562 82.33857 174.33946 83.72947 172.14612 84.79939 C 169.95278 85.869319 168.02692 86.404277 166.36853 86.404277 C 163.02503 86.404277 161.35327 84.866268 161.35327 81.79024 C 158.22376 86.57813 154.61278 92.24872 150.52033 98.801998 C 146.42787 105.35526 144.23453 108.81913 143.94029 109.1936 C 143.64608 109.56808 143.39865 109.75532 143.19805 109.75532 C 142.99744 109.75532 142.68984 109.63495 142.27524 109.39422 C 141.86064 109.15349 141.42598 108.752269 140.97127 108.19055 C 140.51654 107.628849 140.2825 106.813037 140.26914 105.74311 C 140.25576 104.67319 140.57004 103.5899 141.21199 102.493228 C 144.82299 96.474918 151.78417 85.15381 162.09554 68.52989 C 172.4069 51.90598 177.99056 43.31317 178.8465 42.75146 C 179.32796 42.430486 179.80944 42.269998 180.2909 42.269998 L 181.0532 42.31012 Z M 184.58396 60.76627 C 184.58396 60.20456 184.31647 59.923707 183.78151 59.923707 C 182.33713 59.923707 179.28116 62.143796 174.61362 66.58397 C 169.94609 71.02415 166.2348 75.07648 163.47975 78.74096 C 164.1752 79.59689 165.205 80.024868 166.56916 80.024868 C 167.9333 80.024868 169.69867 79.28929 171.86527 77.818149 C 174.03185 76.34701 176.03795 74.6017 177.88358 72.58222 C 179.72919 70.562747 181.30733 68.442958 182.61798 66.22287 C 183.92864 64.002788 184.58396 62.183916 184.58396 60.76627 Z M 224.09882 24.776776 C 225.38272 24.776776 226.51284 25.157935 227.48914 25.920254 C 228.46544 26.682574 228.95359 27.812678 228.95359 29.310566 C 228.95359 30.808459 228.12439 33.155599 226.46602 36.35199 C 224.80765 39.54838 222.81491 42.811647 220.48783 46.141778 C 218.16075 49.47191 215.52606 53.00934 212.58379 56.754064 C 207.92963 62.69213 203.46269 68.028369 199.18302 72.76277 C 199.15627 73.08375 199.04259 73.67889 198.84198 74.5482 C 198.64138 75.41751 198.54106 76.29351 198.54106 77.17619 C 198.54106 78.058879 198.94898 78.85464 199.76479 79.56346 C 200.5806 80.272289 201.59033 80.62669 202.79399 80.62669 C 203.99765 80.62669 205.28826 80.19872 206.66577 79.34279 C 208.04329 78.486858 209.24027 77.5373 210.2567 76.494129 C 212.9315 73.739078 214.58989 72.36155 215.23184 72.36155 C 215.8738 72.36155 216.19477 73.33785 216.19477 75.29046 L 216.19477 76.0929 C 216.19477 77.13608 216.00753 77.89839 215.63306 78.37986 C 213.38622 81.1349 210.85854 83.18782 208.04999 84.5386 C 205.24144 85.88937 202.58002 86.56476 200.06569 86.56476 C 197.55138 86.56476 195.6389 85.79575 194.32825 84.257747 C 193.0176 82.71973 192.36226 80.61332 192.36226 77.938518 C 192.36226 72.72265 193.75984 66.59066 196.55501 59.54255 C 199.35019 52.49444 202.49977 46.49619 206.00377 41.5478 C 213.89444 30.367115 219.92612 24.776776 224.09882 24.776776 Z M 222.29332 31.437039 C 222.29332 31.035817 222.15958 30.835206 221.8921 30.835206 C 220.95592 30.835206 218.4951 33.51001 214.50965 38.85962 C 210.52419 44.20923 207.64208 48.475545 205.86334 51.65856 C 204.0846 54.84158 202.40616 58.840414 200.82802 63.65506 C 203.98429 59.910337 208.3509 54.072576 213.92787 46.141778 C 219.50484 38.21098 222.29332 33.309404 222.29332 31.437039 Z M 239.62252 54.988695 C 239.62252 56.754064 238.907 58.30545 237.47599 59.642854 C 236.04497 60.980257 234.42002 61.648958 232.60115 61.648958 C 232.0127 61.648958 231.62485 61.50853 231.4376 61.227678 C 231.25037 60.94682 231.15676 60.579034 231.15676 60.124319 C 231.15676 59.6696 231.21025 59.228258 231.31725 58.80029 C 230.35431 59.121267 229.2844 59.616106 228.10749 60.284807 C 226.93056 60.953508 225.48616 61.943185 223.77429 63.253839 C 222.06243 64.56449 221.20648 65.540798 221.20648 66.18275 C 221.20648 66.39673 221.52077 66.50372 222.14936 66.50372 C 222.77794 66.50372 223.74755 66.28305 225.0582 65.84171 C 226.36885 65.40037 227.28498 65.179698 227.80657 65.179698 C 228.32816 65.179698 228.66919 65.20644 228.82968 65.25994 C 229.1774 65.447177 229.55187 65.85509 229.9531 66.483669 C 230.35433 67.11224 230.55493 67.60708 230.55493 67.968189 C 230.55493 68.32928 230.2072 68.804058 229.51175 69.39252 C 228.8163 69.98097 228.02724 70.429 227.14455 70.7366 C 226.26187 71.044208 225.67342 71.27825 225.37918 71.43874 C 219.73534 74.59501 216.91342 76.7616 216.91342 77.938518 C 216.91342 80.024868 218.69217 81.06804 222.24965 81.06804 C 224.52324 81.06804 226.8102 80.34584 229.11054 78.90144 C 231.06314 77.671039 232.82183 76.42056 234.38658 75.15003 C 235.95134 73.8795 236.94103 73.097118 237.35562 72.80289 C 237.77022 72.50866 238.0845 72.36155 238.2985 72.36155 C 238.99394 72.36155 239.34166 73.137248 239.34166 74.68863 C 239.34166 76.24001 239.24805 77.26313 239.0608 77.757968 C 238.87357 78.2528 238.33861 78.86132 237.45592 79.58352 C 231.73184 84.23768 226.31536 86.56476 221.20648 86.56476 C 218.47818 86.56476 216.29822 86.190288 214.66658 85.441349 C 211.6708 84.077198 210.17292 81.990848 210.17292 79.1823 C 210.17292 75.491069 212.72736 72.6959 217.83623 70.79678 C 216.8198 70.34207 216.16448 69.7603 215.87024 69.051479 C 215.57602 68.34265 215.42891 67.205867 215.42891 65.6411 C 215.42891 64.07634 216.15779 62.41796 217.61556 60.665964 C 219.07334 58.913969 220.85877 57.47626 222.97185 56.352846 C 227.6795 53.81178 231.87895 52.541246 235.57019 52.541246 C 236.45287 52.541246 237.34893 52.75523 238.25836 53.183198 C 239.1678 53.611166 239.62252 54.212999 239.62252 54.988695 Z M 267.3425 48.850015 C 267.69023 48.63603 268.1583 48.529039 268.74678 48.529039 C 269.33525 48.529039 270.08418 48.870077 270.9936 49.55215 C 271.90306 50.234228 272.35777 50.822687 272.35777 51.317525 C 272.35777 51.812364 272.1839 52.206895 271.83619 52.501127 C 271.48844 52.795354 270.2647 53.89871 268.165 55.811197 C 266.06529 57.723684 263.66465 59.92371 260.96308 62.411279 C 258.26155 64.89884 256.10835 66.86482 254.50344 68.30922 C 254.28946 70.87703 254.18247 73.53178 254.18247 76.27345 C 254.18247 79.01513 254.54357 80.38596 255.26576 80.38596 C 256.81715 80.17198 258.6895 78.92819 260.88285 76.65461 C 261.6853 75.825428 262.48106 74.98286 263.2701 74.12692 C 264.05918 73.27098 264.54066 72.769458 264.7145 72.622348 C 264.88838 72.47523 265.10905 72.40167 265.37654 72.40167 C 265.858 72.40167 266.1589 72.682529 266.27928 73.24423 C 266.39964 73.80595 266.4598 74.615077 266.4598 75.671619 C 266.4598 76.728168 266.39295 77.40356 266.25923 77.697788 C 265.53703 79.19567 263.84519 81.021228 261.18379 83.174449 C 258.52235 85.32767 256.00135 86.404277 253.62076 86.404277 C 249.7423 86.404277 247.80306 83.72947 247.80306 78.37986 C 247.80306 77.28319 247.8833 75.95916 248.04378 74.407779 C 243.57686 79.11543 239.97925 83.19451 237.25095 86.645008 C 237.03697 86.93923 236.59563 87.08635 235.92693 87.08635 C 235.25823 87.08635 234.50928 86.752 233.68009 86.0833 C 232.85089 85.4146 232.4363 84.806079 232.4363 84.257747 C 232.4363 83.70941 232.48979 83.27475 232.59679 82.95377 C 232.89102 81.88385 234.60958 79.65039 237.75247 76.25339 C 240.89537 72.856388 244.4863 69.41926 248.52526 65.94202 C 248.41826 63.641687 248.36476 61.86963 248.36476 60.625844 C 248.36476 59.382059 248.2912 58.760168 248.14409 58.760168 C 247.99698 58.760168 247.50214 59.148015 246.65958 59.923707 C 245.817 60.699399 245.15499 61.087247 244.67353 61.087247 C 244.19207 61.087247 243.7574 60.65928 243.36957 59.80334 C 242.98172 58.947404 242.7878 58.34557 242.7878 57.99785 C 242.7878 56.794187 243.81092 55.256174 245.85713 53.383813 C 247.90335 51.511449 249.78241 50.575265 251.49428 50.575265 C 251.97574 50.575265 252.61101 50.822687 253.40009 51.317525 C 254.18915 51.812364 254.61043 52.354009 254.66393 52.942468 C 254.85117 55.75101 254.94478 58.07809 254.94478 59.923707 C 259.14424 55.34979 263.2768 51.658559 267.3425 48.850015 Z M 294.70066 40.94597 C 294.70066 42.470609 293.99183 44.00193 292.5742 45.539945 C 291.15657 47.077959 289.6787 47.846963 288.14073 47.846963 C 286.6027 47.846963 285.83369 47.04452 285.83369 45.43964 C 285.83369 43.834756 286.50907 42.30343 287.85987 40.84566 C 289.21064 39.387895 290.70185 38.659009 292.33348 38.659009 C 293.05567 38.659009 293.63075 38.85962 294.05873 39.26084 C 294.48667 39.66206 294.70066 40.22377 294.70066 40.94597 Z M 288.2009 75.972537 C 288.2009 76.77497 288.12065 77.35006 287.96015 77.697788 C 286.6495 80.37259 284.56315 82.53249 281.7011 84.1775 C 278.83909 85.8225 276.3515 86.645008 274.2384 86.645008 C 272.1253 86.645008 270.30644 85.93618 268.7818 84.51853 C 267.25718 83.10089 266.49485 81.656497 266.49485 80.18535 C 266.49485 78.71421 267.2304 76.57436 268.70158 73.76582 C 270.1727 70.957279 271.64384 68.36272 273.115 65.98214 C 274.58616 63.601568 275.32173 62.31097 275.32173 62.11036 C 275.32173 61.909749 275.04756 61.515218 274.4992 60.926759 C 273.95088 60.338304 273.6767 59.90365 273.6767 59.62279 C 273.6767 59.341936 274.23173 58.606367 275.34178 57.416078 C 276.4518 56.22579 277.80259 55.048879 279.3941 53.885339 C 280.98564 52.721799 282.20265 52.140027 283.0452 52.140027 C 283.88777 52.140027 284.6434 52.5145 285.3121 53.263444 C 285.9808 54.01239 286.31517 54.694467 286.31517 55.30967 C 286.31517 55.924875 283.13215 61.715826 276.7661 72.682529 C 276.68586 72.84301 276.46519 73.197429 276.1041 73.74576 C 275.74299 74.29409 275.46214 74.74881 275.26155 75.10991 C 275.0609 75.47101 274.82688 75.90566 274.5594 76.41388 C 274.02445 77.4838 273.75697 78.37986 273.75697 79.10206 C 273.75697 80.01149 274.37217 80.46621 275.60258 80.46621 C 276.83299 80.46621 278.1102 80.04493 279.4342 79.20236 C 280.75825 78.359798 281.90174 77.430309 282.86466 76.41388 C 285.37898 73.712329 286.81 72.36155 287.1577 72.36155 C 287.85319 72.36155 288.2009 73.56521 288.2009 75.972537 Z M 312.83305 33.322774 L 314.47804 33.723997 C 314.71879 33.723997 314.93278 33.84436 315.12 34.085096 C 315.30723 34.32583 315.40086 34.553186 315.40086 34.76717 C 315.40086 34.981157 315.12 35.556238 314.5583 36.492418 C 313.99659 37.4286 313.33457 38.491834 312.57225 39.68212 C 311.80995 40.87241 311.402 41.521055 311.3485 41.628046 C 313.43486 41.467557 314.9127 41.38731 315.782 41.38731 C 316.6513 41.38731 317.24647 41.447496 317.56745 41.56786 C 317.88844 41.688226 318.25624 42.022577 318.6708 42.57091 C 319.0854 43.119249 319.46656 43.53384 319.81428 43.814699 C 320.16203 44.09555 320.33589 44.51683 320.33589 45.07854 C 320.33589 45.64025 319.99485 46.11503 319.31275 46.502878 C 318.63069 46.89072 317.9018 47.124769 317.1261 47.20501 C 310.92057 47.820219 307.4968 48.141195 306.85487 48.167943 C 304.68827 51.484697 301.65904 56.653757 297.7672 63.675119 C 293.87538 70.69648 291.80909 75.08984 291.56834 76.85522 C 291.46134 77.65766 291.40785 78.31299 291.40785 78.8212 C 291.40785 79.86437 291.95619 80.38596 293.05287 80.38596 C 294.14955 80.38596 295.36659 79.96468 296.70399 79.122119 C 298.04139 78.27955 299.2718 77.363437 300.3952 76.37376 C 303.39097 73.69895 304.99586 72.36155 305.20985 72.36155 C 305.9053 72.36155 306.25303 73.56521 306.25303 75.972537 C 306.25303 77.28319 305.65119 78.4601 304.4475 79.50327 C 301.74598 81.83035 299.47239 83.58235 297.62678 84.75927 C 295.78117 85.93618 293.93556 86.524639 292.08995 86.524639 C 291.68873 86.524639 291.31425 86.48451 290.96653 86.404277 C 288.82667 86.00305 287.25523 85.22067 286.25218 84.05713 C 285.2491 82.89359 284.75428 81.32214 284.76765 79.34279 C 284.78105 77.363437 285.36949 74.9628 286.53303 72.14088 C 287.69657 69.318958 289.161 66.31649 290.9264 63.133474 C 293.8152 57.94435 296.70399 53.076208 299.59275 48.529039 L 298.0681 48.72965 C 294.96534 49.077375 293.15986 49.251237 292.65165 49.251237 L 292.29054 49.251237 C 291.51484 49.251237 290.7659 49.097436 290.0437 48.789834 C 289.3215 48.48223 288.96043 48.10107 288.96043 47.646356 C 288.96043 47.19164 289.15434 46.750295 289.54219 46.322328 C 289.93003 45.894357 290.16407 45.560007 290.24433 45.319276 C 290.43156 44.730817 291.1337 44.07549 292.3507 43.35329 C 293.56776 42.631097 294.4839 42.249937 295.0991 42.209814 C 295.7143 42.169694 296.30943 42.136259 296.88453 42.10951 C 297.4596 42.08276 298.10154 42.05601 298.81037 42.029264 C 299.5192 42.002519 300.06083 41.97577 300.4353 41.94902 L 304.0463 41.788534 C 306.29316 38.418279 307.83784 36.251688 308.6804 35.288759 C 309.52296 34.325826 310.0111 33.79755 310.14488 33.703935 C 310.2786 33.610319 310.54609 33.563508 310.9473 33.563508 L 312.83305 33.322774 Z M 315.0368 98.320529 C 314.90306 98.45426 314.49516 99.129657 313.81309 100.346698 C 313.13099 101.56373 312.4021 102.794139 311.62644 104.03792 C 310.85075 105.2817 309.8945 106.4653 308.7577 107.58872 C 307.6209 108.71214 306.67137 109.320659 305.90904 109.414279 C 305.1467 109.5079 304.65855 109.5547 304.44459 109.5547 C 301.98374 109.5547 300.75334 108.31092 300.75334 105.82336 C 300.75334 102.90782 302.2646 99.497447 305.28715 95.592227 C 306.43733 94.121089 307.8817 92.53626 309.62034 90.83776 C 311.35896 89.13926 312.3085 88.17633 312.469 87.948978 C 312.6295 87.72161 314.6356 83.9702 318.4873 76.69473 C 315.9195 79.50327 313.5389 81.78355 311.34559 83.535549 C 309.15226 85.287548 307.03916 86.27054 305.0063 86.48452 L 304.72544 86.48452 C 303.68226 86.48452 302.65248 86.14348 301.63603 85.4614 C 300.6196 84.77933 300.1114 83.58235 300.1114 81.870479 C 300.1114 79.329418 300.79347 76.8686 302.15763 74.48802 C 302.6391 73.65883 303.47499 72.254558 304.66526 70.2752 C 305.85554 68.295848 306.9589 66.38336 307.9753 64.53774 C 308.93824 63.0666 309.92793 61.35473 310.94435 59.402124 C 311.9608 57.449514 312.73649 56.05193 313.27143 55.209367 C 313.80638 54.366804 314.31459 53.94552 314.79606 53.94552 C 315.27754 53.94552 315.8994 54.246435 316.66175 54.848268 C 317.42405 55.450098 317.8052 56.165609 317.8052 56.994798 C 317.8052 57.823987 316.05323 61.421598 312.54924 67.78763 C 309.04524 74.15366 307.29325 77.77803 307.29325 78.66071 C 307.29325 78.874698 307.40025 78.98169 307.61424 78.98169 C 308.33644 78.98169 309.9346 77.95858 312.4088 75.91235 C 314.883 73.86613 317.61799 71.23813 320.61378 68.028369 C 323.95729 64.47088 326.57859 61.22099 328.4777 58.2787 C 328.7184 57.904233 328.91233 57.616689 329.05946 57.416078 C 329.20658 57.215467 329.3938 56.947988 329.62117 56.613637 C 329.84855 56.279287 330.03578 56.01849 330.1829 55.831254 C 330.33003 55.644018 330.50389 55.423349 330.70448 55.169244 C 330.90507 54.915136 331.08564 54.72121 331.24613 54.58747 C 331.40663 54.45373 331.58049 54.319993 331.7677 54.18625 C 332.06193 53.91877 332.3896 53.78503 332.7507 53.78503 C 333.1118 53.78503 333.66014 53.865278 334.3957 54.025766 C 335.13127 54.186254 335.5726 54.36011 335.71974 54.547349 C 335.86686 54.734586 336.02064 54.908449 336.18113 55.068937 C 336.4486 55.363164 336.58235 55.637334 336.58235 55.89144 C 336.58235 56.145547 336.47535 56.479898 336.26139 56.894495 C 336.0474 57.309087 334.80363 59.428869 332.53004 63.253839 C 325.84303 74.54151 321.24235 82.77991 318.72804 87.96903 C 322.79374 84.54528 328.5178 79.476528 335.90028 72.76277 C 336.1945 72.52204 336.48875 72.40167 336.78297 72.40167 C 337.61216 72.40167 338.02674 73.6722 338.02674 76.213268 C 338.02674 76.96221 337.893 77.457057 337.62553 77.697788 C 329.62788 83.84983 322.0983 90.72408 315.0368 98.320529 Z " data-index="9" style="visibility: visible;"></path>
<g id="Layer-1" data-name="P">
</g>
<symbol id="font_4_26">
<path d="M .48535157 .2866211 C .49316407 .2866211 .4970703 .28027345 .4970703 .26757813 C .4970703 .25520835 .49430339 .23372396 .48876954 .203125 C .48453776 .18261719 .46110026 .15332031 .41845704 .115234378 C .36702476 .06966146 .31054688 .037109376 .24902344 .017578125 C .21191406 .005859375 .17561849 0 .14013672 0 C .10498047 0 .072753909 .014811198 .04345703 .044433595 C .014485677 .07438151 0 .10970052 0 .15039063 C 0 .19140625 .0081380209 .23372396 .024414063 .27734376 C .041015626 .32128907 .06315104 .3631185 .09082031 .40283204 C .1188151 .4428711 .1516927 .48128257 .18945313 .5180664 C .22753906 .5548503 .26708985 .5867513 .30810548 .61376956 C .3491211 .6407878 .39208985 .66227218 .43701173 .67822268 C .4819336 .69417318 .52457687 .70214846 .5649414 .70214846 C .59684249 .70214846 .62402346 .69059249 .6464844 .66748049 C .6582031 .65511068 .6640625 .63948568 .6640625 .62060549 C .6640625 .6020508 .65494796 .5784505 .63671877 .5498047 C .61848959 .5214844 .59684249 .49560548 .57177737 .47216798 C .5470378 .44873048 .5213216 .4288737 .4946289 .41259767 C .46826173 .39632163 .44710288 .3881836 .43115235 .3881836 C .4152018 .3881836 .40152995 .3930664 .39013673 .40283204 C .3787435 .4129232 .37304688 .421875 .37304688 .4296875 C .37304688 .4375 .37467448 .4461263 .3779297 .4555664 C .3815104 .4650065 .38590495 .46972657 .39111329 .46972657 C .3898112 .46809898 .38916017 .46647135 .38916017 .46484376 C .38916017 .4609375 .394694 .45898438 .40576173 .45898438 C .41715495 .45898438 .43603517 .46891276 .46240235 .48876954 C .48876954 .5086263 .51253256 .5309245 .5336914 .55566409 C .5551758 .5804036 .56591799 .5989583 .56591799 .6113281 C .56591799 .6197917 .5602214 .62402346 .5488281 .62402346 C .5182292 .62402346 .47591148 .6097005 .421875 .5810547 C .36816407 .5527344 .31673179 .5161133 .26757813 .4711914 C .21842449 .42626954 .17561849 .37288413 .13916016 .31103517 C .103027347 .24951172 .08496094 .19417317 .08496094 .14501953 C .08496094 .12451172 .09033203 .108072917 .10107422 .095703128 C .11214193 .083333339 .12890625 .07714844 .15136719 .07714844 C .17415364 .07714844 .20100911 .08365885 .2319336 .09667969 C .26285807 .10970052 .29215495 .12565105 .31982423 .14453125 C .347819 .16341146 .3741862 .18277996 .39892579 .20263672 C .42366538 .22249349 .44335938 .23990886 .4580078 .2548828 C .47298179 .26985679 .4806315 .2788086 .48095704 .28173829 C .48128257 .2849935 .4827474 .2866211 .48535157 .2866211 Z " data-index="10" style="visibility: visible;"></path>
</symbol>
<symbol id="font_4_52">
<path d="M .3515625 .3852539 C .36132813 .3852539 .3712565 .38085938 .38134767 .3720703 C .3917643 .36328126 .39697267 .34977214 .39697267 .33154298 C .39697267 .3136393 .390625 .2902018 .3779297 .26123048 C .36523438 .23258464 .347819 .20328777 .3256836 .17333985 C .3035482 .14371746 .27913413 .115722659 .2524414 .08935547 C .22607422 .063313808 .19742839 .041829427 .1665039 .024902344 C .13590496 .008300781 .108072917 0 .08300781 0 C .057942708 0 .037760419 .0078125 .022460938 .0234375 C .007486979 .03938802 0 .061360677 0 .08935547 C 0 .11767578 .0068359377 .14892578 .020507813 .18310547 C .034505208 .21728516 .052408857 .24739583 .07421875 .2734375 C .09602865 .2998047 .119628909 .32340495 .14501953 .34423829 C .19807942 .3868815 .2446289 .40820313 .28466798 .40820313 C .30257163 .40820313 .31608073 .4038086 .3251953 .39501954 C .32845054 .39208985 .33007813 .3894857 .33007813 .38720704 L .33007813 .38427735 C .3346354 .38492839 .34179688 .3852539 .3515625 .3852539 M .3022461 .3203125 L .29882813 .3203125 C .2874349 .3203125 .28173829 .32861329 .28173829 .34521485 C .25797526 .33740235 .23307292 .32373048 .20703125 .30419923 C .18098958 .28466798 .15771485 .261556 .13720703 .23486328 C .09554037 .18147786 .07438151 .13639324 .07373047 .099609378 C .07373047 .08138021 .08040365 .072265628 .09375 .072265628 C .10709635 .072265628 .12695313 .08105469 .15332031 .09863281 C .1796875 .11621094 .20572917 .14127605 .23144531 .17382813 C .25748698 .2063802 .27685548 .23453777 .28955079 .25830079 C .30257163 .2823893 .30908204 .29866538 .30908204 .3071289 C .30908204 .31591798 .30680339 .3203125 .3022461 .3203125 Z " data-index="11" style="visibility: visible;"></path>
</symbol>
<symbol id="font_4_50">
<path d="M .0546875 .0146484379 L .030761719 .015625 L .021972657 .015625 C .018717448 .016601563 .0152994799 .018554688 .01171875 .021484375 C .0078125 .024414063 .0048828127 .026529948 .0029296876 .027832032 C .0009765625 .029134116 0 .03141276 0 .03466797 C 0 .0382487 .0013020834 .044270833 .00390625 .052734376 C .06738281 .19238281 .12874349 .30403648 .18798828 .3876953 C .1944987 .3968099 .20491536 .40364585 .21923828 .40820313 C .23388672 .41308595 .24804688 .41552735 .26171876 .41552735 C .26985679 .41552735 .27392579 .4091797 .27392579 .39648438 C .27392579 .39290367 .2726237 .38802085 .27001954 .38183595 C .26741538 .37597657 .26090495 .36621095 .25048829 .35253907 C .24007161 .3388672 .22770183 .3232422 .2133789 .30566407 C .19905599 .28808595 .19091797 .27799479 .18896485 .27539063 C .2335612 .3216146 .27376304 .35595704 .3095703 .37841798 C .34570313 .40120445 .37174479 .41259767 .3876953 .41259767 C .40397135 .41259767 .41634117 .4078776 .4248047 .3984375 C .43359376 .3893229 .43798829 .37939454 .43798829 .36865235 C .43798829 .3582357 .43717448 .34944663 .43554688 .34228517 C .43424479 .33544923 .43164063 .328125 .42773438 .3203125 C .42382813 .31282554 .42041017 .3063151 .41748048 .30078126 C .4148763 .2955729 .410319 .28857423 .4038086 .27978517 C .3972982 .27132163 .39274089 .26546226 .39013673 .26220704 C .38785807 .2589518 .3828125 .25276695 .375 .24365235 C .36751304 .23453777 .363444 .22949219 .36279298 .22851563 C .37190757 .2376302 .38460288 .2511393 .4008789 .26904298 C .41715495 .28694663 .4308268 .30192057 .44189454 .31396485 C .45328776 .32600913 .4674479 .33951823 .484375 .3544922 C .50130209 .36979167 .51708987 .38216148 .5317383 .39160157 C .56689456 .41373698 .60253909 .4248047 .6386719 .4248047 C .6510417 .4248047 .6614583 .42089845 .6699219 .41308595 C .67838546 .40527345 .6826172 .39583335 .6826172 .38476563 C .6826172 .37402345 .6694336 .34798179 .6430664 .30664063 C .6166992 .265625 .59033206 .22428386 .56396487 .18261719 C .53792318 .14127605 .52490237 .115234378 .52490237 .10449219 C .52490237 .08951823 .52766928 .080566409 .5332031 .07763672 C .538737 .075032558 .54541018 .07405599 .55322268 .07470703 C .56103518 .07535807 .5719401 .08040365 .5859375 .08984375 C .60026046 .09928385 .61295577 .10904948 .62402346 .119140628 C .64192709 .13541667 .6585286 .15120442 .6738281 .1665039 C .6770833 .1694336 .68066409 .17089844 .6845703 .17089844 C .6907552 .17089844 .6944987 .16617839 .6958008 .15673828 C .69710287 .14729817 .6977539 .13753255 .6977539 .1274414 C .6977539 .11735026 .69677737 .11035156 .6948242 .10644531 C .6853841 .08821615 .6645508 .06591797 .6323242 .03955078 C .60009768 .013183594 .56917318 0 .5395508 0 C .53597006 0 .5333659 .00016276042 .5317383 .00048828127 C .49820964 .0037434896 .4749349 .012858073 .46191407 .027832032 C .44921876 .04313151 .4428711 .061197919 .4428711 .08203125 C .4428711 .102864589 .44986979 .12809246 .4638672 .15771485 C .4781901 .18733724 .4938151 .2141927 .5107422 .23828125 C .52766928 .26236979 .54313156 .28401695 .5571289 .30322267 C .57145187 .3227539 .5786133 .33333335 .5786133 .33496095 C .5786133 .33658854 .5773112 .33740235 .57470706 .33740235 C .5646159 .33740235 .54215499 .3211263 .5073242 .28857423 C .4477539 .23291016 .39632163 .17919922 .35302735 .1274414 C .34163413 .11376953 .31461589 .07910156 .27197267 .0234375 C .26708985 .016927084 .25927735 .013671875 .24853516 .013671875 C .23811849 .013671875 .22721355 .015625 .21582031 .01953125 C .20442708 .023763022 .19873047 .029134116 .19873047 .03564453 C .19873047 .03889974 .22460938 .084472659 .2763672 .17236328 C .328125 .26057945 .3540039 .30859376 .3540039 .31640626 C .3540039 .32454429 .3491211 .32861329 .33935548 .32861329 C .32991538 .32861329 .31022135 .31429038 .28027345 .28564454 C .19791667 .20686849 .13411458 .12858074 .08886719 .05078125 C .0859375 .046223958 .08024088 .0390625 .071777347 .029296875 C .063313808 .01953125 .057617189 .0146484379 .0546875 .0146484379 Z " data-index="12" style="visibility: visible;"></path>
</symbol>
<symbol id="font_4_53">
<path d="M .49641926 .8208008 L .5052083 .82177737 C .5100911 .82177737 .5139974 .8175456 .51692709 .80908206 C .51985678 .80061849 .5213216 .7949219 .5213216 .7919922 C .5213216 .7890625 .5180664 .7835286 .51155599 .7753906 L .3723958 .56347659 C .42122398 .6123047 .47086589 .6479492 .5213216 .67041018 C .54085287 .6788737 .55843099 .68310549 .57405599 .68310549 C .59000656 .68310549 .60270187 .67789718 .6121419 .66748049 C .62190756 .65738937 .62679037 .64469406 .62679037 .62939456 C .62679037 .61409506 .6225586 .59521487 .61409506 .5727539 C .60563156 .55029299 .5940755 .5263672 .57942709 .50097659 C .5651042 .47558595 .54752609 .45003257 .5266927 .4243164 C .5061849 .39860026 .48453776 .37532554 .46175129 .3544922 C .43929038 .33365885 .41471354 .31673179 .3880208 .30371095 C .36132813 .2906901 .33789063 .2841797 .3177083 .2841797 C .27701823 .2841797 .25667317 .30289714 .25667317 .34033204 C .21858724 .2820638 .17464192 .21305339 .124837238 .13330078 C .07503255 .053548177 .04833984 .0113932299 .04475911 .0068359377 C .04117838 .0022786458 .03824869 0 .035970048 0 C .03336588 0 .02962239 .0014648438 .024739579 .0043945314 C .019531245 .0073242189 .014160152 .012207031 .008626297 .019042969 C .0030924429 .025878907 .00032551588 .035807294 .00032551588 .048828126 C -.000000004967054 .061848958 .0037434847 .075032558 .011555985 .088378909 C .055501298 .1616211 .1401367 .2993164 .26546223 .50146487 C .39111329 .7039388 .45914714 .80859377 .46956379 .8154297 C .4754232 .81933596 .48128257 .82128909 .4871419 .82128909 L .49641926 .8208008 M .539388 .5961914 C .539388 .60302737 .5361328 .6064453 .5296224 .6064453 C .51204428 .6064453 .47477214 .57942709 .41780598 .5253906 C .36116538 .47135417 .31608073 .42203776 .28255207 .3774414 C .2910156 .36702476 .30354817 .3618164 .32014973 .3618164 C .3367513 .3618164 .3582357 .37076823 .38460285 .38867188 C .41097007 .40657554 .43538413 .42773438 .45784504 .45214845 C .480306 .47688804 .49951173 .5027669 .5154622 .52978518 C .5314128 .5568034 .539388 .5789388 .539388 .5961914 Z " data-index="13" style="visibility: visible;"></path>
</symbol>
<symbol id="font_4_4f">
<path d="M .38623048 .7519531 C .40185548 .7519531 .41552735 .7472331 .4272461 .73779299 C .43929038 .7286784 .4453125 .71500656 .4453125 .69677737 C .4453125 .67854818 .43522135 .64990237 .41503907 .61083987 C .39485679 .57210287 .37060548 .53238937 .34228517 .49169923 C .31396485 .45133464 .28190104 .40836589 .24609375 .36279298 C .18945313 .29052735 .13509114 .22558594 .08300781 .16796875 C .08268229 .1640625 .081217449 .15673828 .07861328 .1459961 C .07633463 .13557942 .07519531 .125 .07519531 .11425781 C .07519531 .103515628 .080078128 .09375 .08984375 .08496094 C .0999349 .0764974 .11230469 .072265628 .12695313 .072265628 C .14160156 .072265628 .15722656 .07747396 .17382813 .087890628 C .1907552 .09830729 .20540364 .10986328 .21777344 .122558597 C .25032554 .15608724 .2705078 .17285156 .2783203 .17285156 C .2861328 .17285156 .29003907 .16097005 .29003907 .13720703 L .29003907 .1274414 C .29003907 .114746097 .2877604 .10546875 .28320313 .099609378 C .25585938 .06608073 .22509766 .041015626 .19091797 .024414063 C .15673828 .0081380209 .12434896 0 .09375 0 C .06315104 0 .0398763 .009277344 .023925782 .027832032 C .007975261 .04671224 0 .07242838 0 .10498047 C 0 .16845703 .016927084 .2430013 .05078125 .32861329 C .08496094 .41455079 .1233724 .48763023 .16601563 .54785159 C .26204429 .68391928 .33544923 .7519531 .38623048 .7519531 M .3642578 .67089846 C .3642578 .67578127 .36263023 .67822268 .359375 .67822268 C .34798179 .67822268 .31803385 .6456706 .26953126 .5805664 C .22102864 .5154622 .18587239 .46354167 .1640625 .4248047 C .14257813 .38606773 .12223307 .33740235 .103027347 .2788086 C .1414388 .3243815 .1944987 .39534507 .26220704 .49169923 C .33024089 .5883789 .3642578 .648112 .3642578 .67089846 Z " data-index="14" style="visibility: visible;"></path>
</symbol>
<symbol id="font_4_48">
<path d="M .35839845 .38427735 C .35839845 .36279298 .34960938 .34391276 .33203126 .32763673 C .31477867 .3113607 .29508464 .30322267 .27294923 .30322267 C .26578776 .30322267 .26106773 .30485026 .25878907 .30810548 C .2565104 .3116862 .2553711 .3162435 .2553711 .32177735 C .2553711 .3273112 .25602214 .33268229 .25732423 .33789063 C .24560547 .33398438 .23258464 .32796226 .21826172 .31982423 C .2039388 .3116862 .18636067 .29964195 .16552735 .2836914 C .14469402 .26774089 .13427735 .25585938 .13427735 .24804688 C .13427735 .2454427 .13802083 .24414063 .14550781 .24414063 C .15332031 .24414063 .16520183 .2467448 .18115235 .25195313 C .19710286 .25748698 .20817058 .2602539 .21435547 .2602539 C .22086589 .2602539 .22509766 .25992839 .22705078 .25927735 C .23128255 .2569987 .23583985 .25195313 .24072266 .24414063 C .24560547 .23665364 .24804688 .23063152 .24804688 .22607422 C .24804688 .22184246 .24381511 .21614583 .23535156 .20898438 C .22688802 .20182292 .21728516 .19628906 .20654297 .19238281 C .19580078 .18880208 .18863933 .18603516 .1850586 .18408203 C .116373699 .14567058 .08203125 .11930338 .08203125 .10498047 C .08203125 .079589847 .10367838 .06689453 .14697266 .06689453 C .17464192 .06689453 .20247396 .075683597 .23046875 .09326172 C .25423179 .10823568 .27555339 .1233724 .2944336 .13867188 C .3136393 .15429688 .3256836 .16389974 .3305664 .16748047 C .33577476 .1710612 .339681 .17285156 .34228517 .17285156 C .3507487 .17285156 .35498048 .16341146 .35498048 .14453125 C .35498048 .12565105 .35384117 .11311849 .3515625 .106933597 C .34928385 .10107422 .34277345 .09375 .33203126 .08496094 C .26236979 .028320313 .19645183 0 .13427735 0 C .10107422 0 .07454427 .0045572917 .0546875 .013671875 C .018229166 .030273438 0 .055664064 0 .08984375 C 0 .13476563 .03108724 .16878255 .09326172 .19189453 C .08089193 .19742839 .072916667 .20442708 .06933594 .21289063 C .06575521 .22167969 .063964847 .23551433 .063964847 .25439454 C .063964847 .27360026 .072753909 .29378257 .09033203 .3149414 C .10823568 .33642579 .13004558 .3540039 .15576172 .36767579 C .21305339 .39860026 .26416017 .4140625 .30908204 .4140625 C .31982423 .4140625 .33072917 .41145835 .34179688 .40625 C .3528646 .40104167 .35839845 .39371745 .35839845 .38427735 Z " data-index="15" style="visibility: visible;"></path>
</symbol>
<symbol id="font_4_5b">
<path d="M .4248047 .46533204 C .42903648 .4679362 .43473307 .46923829 .44189454 .46923829 C .449056 .46923829 .45817057 .4650065 .46923829 .45654298 C .480306 .44840495 .48583985 .4412435 .48583985 .4350586 C .48583985 .42919923 .48372398 .42447917 .4794922 .42089845 C .4752604 .41731773 .46028648 .4038086 .4345703 .3803711 C .4091797 .35725913 .38004557 .3305664 .34716798 .30029298 C .31429038 .27001954 .28808595 .24609375 .2685547 .22851563 C .26595054 .19726563 .26464845 .1648763 .26464845 .13134766 C .26464845 .09814453 .26904298 .08154297 .27783204 .08154297 C .29671226 .08414713 .3194987 .09928385 .3461914 .12695313 C .35595704 .13704427 .3655599 .14729817 .375 .15771485 C .38476563 .16813152 .390625 .17415364 .39257813 .17578125 C .39485679 .17773438 .3976237 .17871094 .4008789 .17871094 C .40673829 .17871094 .410319 .17529297 .4116211 .16845703 C .4132487 .1616211 .4140625 .1516927 .4140625 .13867188 C .4140625 .12597656 .4132487 .11783854 .4116211 .11425781 C .40283204 .09602865 .38216148 .07373047 .34960938 .04736328 C .3173828 .021321616 .28678385 .008300781 .2578125 .008300781 C .21061199 .008300781 .18701172 .040852865 .18701172 .10595703 C .18701172 .11930338 .18798828 .13541667 .1899414 .15429688 C .13557942 .09700521 .091796878 .04736328 .05859375 .0053710939 C .055989583 .0017903646 .05061849 0 .04248047 0 C .03434245 0 .025227866 .0040690104 .015136719 .012207031 C .0050455729 .020345053 0 .027669272 0 .034179689 C 0 .041015626 .0006510417 .04638672 .001953125 .05029297 C .005533854 .063313808 .026367188 .09049479 .064453128 .13183594 C .102864589 .17317708 .14664714 .21500652 .19580078 .25732423 C .1944987 .285319 .19384766 .30680339 .19384766 .32177735 C .19384766 .3370768 .1928711 .34472657 .19091797 .34472657 C .18929036 .34472657 .18326824 .3400065 .17285156 .3305664 C .16276042 .3211263 .15478516 .31640626 .14892578 .31640626 C .1430664 .31640626 .13769531 .3216146 .1328125 .33203126 C .1282552 .3424479 .12597656 .34977214 .12597656 .3540039 C .12597656 .36865235 .13834636 .38736979 .16308594 .41015626 C .18815105 .43294273 .21110027 .44433595 .2319336 .44433595 C .23779297 .44433595 .2454427 .4412435 .2548828 .4350586 C .26464845 .42919923 .26985679 .4226888 .2705078 .41552735 C .27278648 .38134767 .27392579 .35302735 .27392579 .3305664 C .32503257 .38623048 .37532554 .43115235 .4248047 .46533204 Z " data-index="16" style="visibility: visible;"></path>
</symbol>
<symbol id="font_4_4c">
<path d="M .34326173 .55615237 C .34326173 .53759768 .3346354 .5188802 .3173828 .5 C .30013023 .4814453 .2820638 .47216798 .2631836 .47216798 C .2446289 .47216798 .23535156 .4819336 .23535156 .50146487 C .23535156 .5209961 .24348958 .5395508 .25976563 .5571289 C .2763672 .57503256 .29459635 .5839844 .31445313 .5839844 C .3232422 .5839844 .33024089 .58154299 .33544923 .57666018 C .34065757 .57177737 .34326173 .5649414 .34326173 .55615237 M .26416017 .12988281 C .26416017 .12011719 .2631836 .11311849 .26123048 .10888672 C .24527996 .07633463 .21988933 .04996745 .1850586 .029785157 C .15022786 .009928386 .11995443 0 .09423828 0 C .06852213 0 .04638672 .008626302 .027832032 .025878907 C .009277344 .04313151 0 .060709638 0 .07861328 C 0 .09651693 .008951823 .122558597 .026855469 .15673828 C .044759115 .19091797 .06266276 .22249349 .080566409 .25146485 C .098470058 .2804362 .107421878 .2960612 .107421878 .29833985 C .107421878 .300944 .104003909 .3058268 .09716797 .31298829 C .090657558 .32014976 .087402347 .32535807 .087402347 .32861329 C .087402347 .332194 .09407552 .34114585 .107421878 .35546876 C .12109375 .3701172 .13753255 .3844401 .15673828 .3984375 C .17626953 .4127604 .19108074 .41992188 .20117188 .41992188 C .21158855 .41992188 .22086589 .4153646 .2290039 .40625 C .23714192 .3971354 .24121094 .38883464 .24121094 .38134767 C .24121094 .3738607 .20247396 .3033854 .125 .16992188 C .12402344 .16796875 .12125651 .16357422 .11669922 .15673828 C .112467449 .15022786 .10904948 .14469402 .10644531 .14013672 C .104166667 .13590496 .10139974 .13069661 .09814453 .12451172 C .09163412 .11149088 .088378909 .10058594 .088378909 .091796878 C .088378909 .080729167 .09586588 .07519531 .110839847 .07519531 C .1258138 .07519531 .14127605 .08024088 .15722656 .09033203 C .17350261 .100748699 .1875 .11214193 .19921875 .12451172 C .2298177 .15738933 .24723308 .17382813 .25146485 .17382813 C .25992839 .17382813 .26416017 .15917969 .26416017 .12988281 Z " data-index="17" style="visibility: visible;"></path>
</symbol>
<symbol id="font_4_57">
<path d="M .34179688 .64746096 L .3618164 .6425781 C .3647461 .6425781 .36735026 .6411133 .3696289 .6381836 C .37190757 .6352539 .37304688 .632487 .37304688 .6298828 C .37304688 .6272786 .3696289 .62027999 .36279298 .6088867 C .35595704 .59749349 .347819 .58447268 .3383789 .5698242 C .3292643 .5555013 .3243815 .5476888 .32373048 .5463867 C .3491211 .54833987 .36702476 .5493164 .3774414 .5493164 C .3881836 .5493164 .3955078 .5485026 .39941407 .546875 C .4033203 .54557296 .40771485 .5415039 .41259767 .53466799 C .417806 .52815756 .42252604 .523112 .4267578 .51953127 C .4309896 .51627609 .43310548 .51123049 .43310548 .50439456 C .43310548 .4975586 .4288737 .49169923 .42041017 .4868164 C .41227214 .48225913 .40348307 .4794922 .39404298 .47851563 C .31852214 .47102867 .27685548 .4671224 .26904298 .46679688 C .24267578 .42643229 .20572917 .363444 .15820313 .27783204 C .1110026 .19254558 .0859375 .13916016 .08300781 .11767578 C .08170573 .107910159 .08105469 .0999349 .08105469 .09375 C .08105469 .08105469 .08772787 .07470703 .10107422 .07470703 C .11442057 .07470703 .12923177 .0797526 .14550781 .08984375 C .16178386 .100260417 .17675781 .11149088 .19042969 .123535159 C .22688802 .15608724 .24641927 .17236328 .24902344 .17236328 C .25748698 .17236328 .26171876 .15771485 .26171876 .12841797 C .26171876 .112467449 .25439454 .09814453 .2397461 .08544922 C .20686849 .057128908 .17919922 .035807294 .15673828 .021484375 C .13427735 .0071614587 .111816409 0 .08935547 0 C .084472659 0 .07991537 .00048828127 .075683597 .0014648438 C .049641927 .0063476564 .030436198 .01578776 .018066407 .029785157 C .0060221354 .044108076 0 .063313808 0 .087402347 C .00032552085 .11149088 .007486979 .140625 .021484375 .17480469 C .035807294 .20930989 .053710939 .24593099 .07519531 .28466798 C .11035156 .347819 .14550781 .4070638 .18066406 .46240235 L .16210938 .45996095 C .12434896 .45572917 .102376308 .45361329 .096191409 .45361329 L .091796878 .45361329 C .08235677 .45361329 .07324219 .45540367 .064453128 .45898438 C .055664064 .46289063 .05126953 .4676107 .05126953 .47314454 C .05126953 .47867839 .053548177 .48404948 .05810547 .4892578 C .06298828 .49446617 .06591797 .49853517 .06689453 .50146487 C .06917318 .5086263 .07763672 .51660159 .092285159 .5253906 C .10725912 .5341797 .118489589 .538737 .12597656 .5390625 C .13346355 .53971359 .140625 .54020187 .14746094 .54052737 C .15462239 .54085287 .16243489 .5411784 .17089844 .5415039 C .1796875 .5418294 .18636067 .54215499 .19091797 .54248049 L .23486328 .5444336 C .26220704 .5854492 .28092448 .6118164 .29101563 .62353518 C .30143229 .6352539 .30745445 .64160159 .30908204 .6425781 C .31070964 .6438802 .31396485 .64453127 .31884767 .64453127 L .34179688 .64746096 Z " data-index="18" style="visibility: visible;"></path>
</symbol>
<symbol id="font_4_5c">
<path d="M .18164063 .13671875 C .18001302 .13509114 .17496746 .12695313 .1665039 .11230469 C .15836589 .09733073 .14957683 .08235677 .14013672 .06738281 C .13069661 .052083333 .11897787 .037597658 .10498047 .023925782 C .091308597 .010253906 .0797526 .0029296876 .0703125 .001953125 C .061197919 .0006510417 .055338544 0 .052734376 0 C .022786459 0 .0078125 .015136719 .0078125 .045410158 C .0078125 .08089193 .026204428 .122395839 .06298828 .16992188 C .07698568 .18782552 .094563808 .20719402 .115722659 .22802735 C .13688152 .24853516 .1484375 .2602539 .15039063 .2631836 C .15234375 .26578776 .17675781 .3113607 .22363281 .39990235 C .19238281 .36572267 .16341146 .33789063 .13671875 .31640626 C .11002604 .2952474 .0843099 .28336589 .059570314 .28076173 L .056152345 .28076173 C .04345703 .28076173 .030924479 .2849935 .018554688 .29345704 C .006184896 .30159507 0 .31608073 0 .33691407 C 0 .36783854 .008300781 .39778648 .024902344 .4267578 C .030761719 .43684898 .040852865 .4539388 .05517578 .47802735 C .06982422 .5021159 .083333339 .5253906 .095703128 .54785159 C .107421878 .5657552 .11946615 .58658859 .13183594 .61035159 C .14420574 .63411459 .15364583 .6510417 .16015625 .6611328 C .16666667 .6715495 .17285156 .6767578 .17871094 .6767578 C .18457031 .6767578 .1920573 .67301437 .20117188 .66552737 C .21061199 .6583659 .21533203 .64973959 .21533203 .63964846 C .21533203 .6295573 .19401042 .5857747 .15136719 .5083008 C .10872396 .4308268 .087402347 .38671876 .087402347 .37597657 C .087402347 .3733724 .08870443 .3720703 .091308597 .3720703 C .100097659 .3720703 .11946615 .3844401 .14941406 .4091797 C .1796875 .43424479 .21305339 .4663086 .24951172 .5053711 C .2902018 .54866537 .32210288 .5882161 .34521485 .62402346 C .34814454 .62858077 .3504232 .6319987 .35205079 .63427737 C .3540039 .63688156 .35628257 .6401367 .35888673 .64404299 C .3618164 .6482747 .36409507 .65152999 .36572267 .6538086 C .36767579 .6560872 .36979167 .6586914 .3720703 .6616211 C .37467448 .6648763 .37695313 .6673177 .37890626 .6689453 C .38085938 .67057296 .38297526 .6722005 .3852539 .6738281 C .38883464 .6770833 .39274089 .67871096 .39697267 .67871096 C .40152995 .67871096 .40820313 .6777344 .4169922 .67578127 C .42610679 .6738281 .43147788 .6717122 .43310548 .6694336 C .4350586 .66715499 .43701173 .66503909 .43896485 .66308596 C .44222007 .6595052 .44384767 .6560872 .44384767 .65283206 C .44384767 .64990237 .44254557 .6458333 .4399414 .640625 C .43733726 .6357422 .42220054 .61002609 .39453126 .56347659 C .31315104 .42610679 .25716148 .32584635 .2265625 .2626953 C .27604167 .30436198 .34570313 .3660482 .43554688 .4477539 C .4391276 .4506836 .44270835 .45214845 .44628907 .45214845 C .45638023 .45214845 .46142579 .4366862 .46142579 .40576173 C .46142579 .39664714 .4597982 .390625 .45654298 .3876953 C .35921226 .31282554 .26757813 .22916667 .18164063 .13671875 Z " data-index="19" style="visibility: visible;"></path>
</symbol>
<use xlink:href="#font_4_26" transform="matrix(170.87252,-10.37997,-10.37997,-170.87252,257.07368,646.55209)" fill-opacity="0"></use>
<use xlink:href="#font_4_52" transform="matrix(170.87252,-10.37997,-10.37997,-170.87252,342.35993,643.2973)" fill-opacity="0"></use>
<use xlink:href="#font_4_50" transform="matrix(170.87252,-10.37997,-10.37997,-170.87252,399.04667,640.60739)" fill-opacity="0"></use>
<use xlink:href="#font_4_53" transform="matrix(170.87252,-10.37997,-10.37997,-170.87252,476.92539,684.53048)" fill-opacity="0"></use>
<use xlink:href="#font_4_4f" transform="matrix(170.87252,-10.37997,-10.37997,-170.87252,582.33749,629.72427)" fill-opacity="0"></use>
<use xlink:href="#font_4_48" transform="matrix(170.87252,-10.37997,-10.37997,-170.87252,619.3747,627.4744)" fill-opacity="0"></use>
<use xlink:href="#font_4_5b" transform="matrix(170.87252,-10.37997,-10.37997,-170.87252,665.7373,625.74667)" fill-opacity="0"></use>
<use xlink:href="#font_4_4c" transform="matrix(170.87252,-10.37997,-10.37997,-170.87252,736.5063,620.5265)" fill-opacity="0"></use>
<use xlink:href="#font_4_57" transform="matrix(170.87252,-10.37997,-10.37997,-170.87252,774.4478,617.9704)" fill-opacity="0"></use>
<use xlink:href="#font_4_5c" transform="matrix(170.87252,-10.37997,-10.37997,-170.87252,809.30599,663.92068)" fill-opacity="0"></use>
<g id="Layer-1" data-name="P">
<g id="Layer-2" data-name="P">
</g>
<use xlink:href="#font_4_26" transform="matrix(170.87252,-10.37997,-10.37997,-170.87252,257.07368,646.55209)" fill="#ffcc00"></use>
<use xlink:href="#font_4_52" transform="matrix(170.87252,-10.37997,-10.37997,-170.87252,342.35993,643.2973)" fill="#ffcc00"></use>
<use xlink:href="#font_4_50" transform="matrix(170.87252,-10.37997,-10.37997,-170.87252,399.04667,640.60739)" fill="#ffcc00"></use>
<use xlink:href="#font_4_53" transform="matrix(170.87252,-10.37997,-10.37997,-170.87252,476.92539,684.53048)" fill="#ffcc00"></use>
<use xlink:href="#font_4_4f" transform="matrix(170.87252,-10.37997,-10.37997,-170.87252,582.33749,629.72427)" fill="#ffcc00"></use>
<use xlink:href="#font_4_48" transform="matrix(170.87252,-10.37997,-10.37997,-170.87252,619.3747,627.4744)" fill="#ffcc00"></use>
<use xlink:href="#font_4_5b" transform="matrix(170.87252,-10.37997,-10.37997,-170.87252,665.7373,625.74667)" fill="#ffcc00"></use>
<use xlink:href="#font_4_4c" transform="matrix(170.87252,-10.37997,-10.37997,-170.87252,736.5063,620.5265)" fill="#ffcc00"></use>
<use xlink:href="#font_4_57" transform="matrix(170.87252,-10.37997,-10.37997,-170.87252,774.4478,617.9704)" fill="#ffcc00"></use>
<use xlink:href="#font_4_5c" transform="matrix(170.87252,-10.37997,-10.37997,-170.87252,809.30599,663.92068)" fill="#ffcc00"></use>
</g>
</g>
</g>
</svg>